<?xml version="1.0"?>
<svg version="1.1" id="圖層_1" xmlns="http://www.w3.org/2000/svg" x="0" y="0" viewBox="0 0 100 100" xml:space="preserve"><path d="M66.3 52.9c1 .2 1.5 1.1 1.2 2.1-.9 2.6-2.1 5-3.4 7.1-1.7 2.6-3.6 4.9-5.6 7-4.1 4.2-8.8 7.5-13.8 10.1-2.5 1.3-5.1 2.5-7.7 3.3-2.6.9-5.4 1.6-8.1 2-2.8.4-5.6.5-8.3.1-2.7-.4-5.4-1.3-7.5-3.1 2.4 1.3 5 1.7 7.6 1.7 2.6-.1 5.2-.6 7.6-1.4 2.5-.8 4.8-1.9 7.1-3.1 2.3-1.2 4.4-2.7 6.4-4.2 4-3.1 7.6-6.8 10.4-10.8 1.4-2 2.6-4.1 3.5-6.2.6-1.5 1.1-3.1 1.4-4.5.2-.9 1-1.5 1.8-1.3l7.4 1.2z" fill="#ffdc6d"/><path d="M65.1 33.5c.3-1 1.4-1.4 2.3-.9 1.4.8 2.7 1.8 3.8 3 1.4 1.7 2.3 3.7 2.8 5.5 1 3.7.7 7 .1 10-1.2 6.1-3.8 11.3-6.8 16.1-3 4.8-6.5 9.1-10.5 13-4 3.8-8.3 7.2-13.1 9.8 4.3-3.3 7.9-7.3 11-11.6 3.1-4.3 5.7-8.9 7.7-13.7 1.9-4.8 3.3-9.8 3.4-14.5.1-2.3-.3-4.5-1-6-.4-.7-.8-1.2-1.2-1.5-.7-.4-1-1.1-.8-1.9l2.3-7.3z" fill="#ffdc6d"/><path d="M49.1 32c-.6-.7-.4-1.9.4-2.4 1.8-1.1 3.7-2.1 5.7-2.8 2.6-.9 5.3-1.6 8.1-1.7 2.8-.1 5.6.3 8.3 1.3 2.6 1 5 2.5 6.9 4.5 1.9 2 3.1 4.3 4 6.7.9 2.4 1.3 4.9 1.3 7.3.1 4.9-1.1 9.5-3 13.7 1-4.5 1.2-9.1.2-13.4-.5-2.1-1.3-4.1-2.3-5.9-1.1-1.7-2.4-3.3-4-4.3-3.1-2.2-6.9-2.6-10.4-1.7-1.8.5-3.4 1.3-5 2.2-1.1.7-2.1 1.5-3.1 2.4-.7.6-1.7.6-2.3-.1L49.1 32z" fill="#ffdc6d"/><path d="M33.7 47.1c-1-.2-1.5-1.1-1.2-2.1.9-2.6 2.1-5 3.4-7.1 1.7-2.6 3.6-4.9 5.6-7 4.1-4.2 8.8-7.5 13.8-10.1 2.5-1.3 5.1-2.5 7.7-3.3 2.6-.9 5.4-1.6 8.1-2 2.8-.4 5.6-.5 8.3-.1 2.7.4 5.4 1.3 7.5 3.1-2.4-1.3-5-1.7-7.6-1.7-2.6.1-5.2.6-7.6 1.4-2.5.8-4.8 1.9-7.1 3.1-2.3 1.2-4.4 2.7-6.4 4.2-4 3.1-7.6 6.8-10.4 10.8-1.4 2-2.6 4.1-3.5 6.2-.6 1.5-1.1 3.1-1.4 4.5-.2.9-1 1.5-1.8 1.3l-7.4-1.2z" fill="#ffdc6d"/><path d="M34.9 66.5c-.3 1-1.4 1.4-2.3.9-1.4-.8-2.7-1.8-3.8-3-1.4-1.7-2.3-3.7-2.8-5.5-1-3.7-.7-7-.1-10 1.2-6.1 3.8-11.3 6.8-16.1 3-4.8 6.5-9.1 10.5-13 4-3.8 8.3-7.2 13.1-9.8-4.3 3.3-7.9 7.3-11 11.6-3.1 4.3-5.7 8.9-7.7 13.7-1.9 4.8-3.3 9.8-3.4 14.5-.1 2.3.3 4.5 1 6 .4.7.8 1.2 1.2 1.5.7.4 1 1.1.8 1.9l-2.3 7.3z" fill="#ffdc6d"/><path d="M50.9 68c.6.7.4 1.9-.4 2.4-1.8 1.1-3.7 2.1-5.7 2.8-2.6.9-5.3 1.6-8.1 1.7-2.8.1-5.6-.3-8.3-1.3-2.6-1-5-2.5-6.9-4.5-1.9-2-3.1-4.3-4-6.7-.9-2.4-1.3-4.9-1.3-7.3-.1-4.9 1.1-9.5 3-13.7-1 4.5-1.2 9.1-.2 13.4.5 2.1 1.3 4.1 2.3 5.9 1.1 1.7 2.4 3.3 4 4.3 3.1 2.2 6.9 2.6 10.4 1.7 1.8-.5 3.4-1.3 5-2.2 1.1-.7 2.1-1.5 3.1-2.4.7-.6 1.7-.6 2.3.1l4.8 5.8z" fill="#ffdc6d"/><path d="M56.5 63.9c-9.8 8.3-20.8 8.9-24.5 1.5-3.7-7.4 1.3-20.2 11.1-28.5s20.8-8.9 24.5-1.5-1.2 20.2-11.1 28.5z" fill="#ffdc6d"/><path d="M53.9 58.5c-5.9 5-12.5 5.4-14.7.9s.8-12.1 6.7-17.1 12.5-5.4 14.7-.9-.8 12.1-6.7 17.1z" fill="#fff"/><metadata xmlns:d="https://loading.io/stock/"><d:name>galaxy</d:name><d:tags>milky way,vortex,white hole,black hole,spiral,galaxy,astrology</d:tags><d:license>pro</d:license><d:slug>hq31pq</d:slug></metadata></svg>