<?xml version="1.0" encoding="utf-8"?><svg viewBox="0 0 100 100" xmlns="http://www.w3.org/2000/svg" width="200px" height="200px" xmlns:xlink="http://www.w3.org/1999/xlink" style="width:100%;height:100%;background-size:initial;background-repeat-y:initial;background-repeat-x:initial;background-position-y:initial;background-position-x:initial;background-origin:initial;background-image:initial;background-color:rgb(241, 242, 243);background-clip:initial;background-attachment:initial;animation-play-state:paused" ><g class="ldl-scale" style="transform-origin:50% 50%;transform:rotate(0deg) scale(0.8, 0.8);animation-play-state:paused" ><g style="animation-play-state:paused" ><path fill="#666" d="M15.194 70.305V32.014a6.042 6.042 0 0 1 6.042-6.042h57.528a6.042 6.042 0 0 1 6.042 6.042v38.291" style="fill:rgb(249, 174, 92);animation-play-state:paused" ></path>
<path fill="#323232" d="M19 64.014V33.368a3.382 3.382 0 0 1 3.382-3.382h55.236A3.382 3.382 0 0 1 81 33.368v30.647H19z" style="fill:rgb(228, 129, 47);animation-play-state:paused" ></path></g>
<path fill="#e0e0e0" d="M58.627 67.695c-.645 1.248-1.933 2.11-3.435 2.11H44.808c-1.502 0-2.79-.862-3.435-2.11H8.333c0 4.602 3.731 6.333 8.333 6.333h66.667c4.602 0 8.333-1.731 8.333-6.333H58.627z" style="animation-play-state:paused" ></path>
<metadata xmlns:d="https://loading.io/stock/" style="animation-play-state:paused" ><d:name style="animation-play-state:paused" >notebook</d:name>


<d:tags style="animation-play-state:paused" >notebook,macbook,computer,desktop,laptop,website</d:tags>


<d:license style="animation-play-state:paused" >by</d:license>


<d:slug style="animation-play-state:paused" >5wmmwr</d:slug></metadata></g><!-- generated by https://loading.io/ --></svg>